<?xml version="1.0" encoding="utf-8"?>
<svg width="24px" height="24px" viewBox="0 0 24 24" version="1.1" xmlns:xlink="http://www.w3.org/1999/xlink" xmlns="http://www.w3.org/2000/svg">
  <desc>Created with Lunacy</desc>
  <g id="00-General-/-01-Icons-/-02-Common-/-01-Settings">
    <path d="M0 0L24 0L24 24L0 24L0 0Z" id="BG" fill="none" stroke="none" />
    <path d="M15 7.5C15 3.35786 11.6421 0 7.5 0C3.35786 0 0 3.35786 0 7.5C0 11.6421 3.35786 15 7.5 15C9.21015 15 10.7866 14.4276 12.0483 13.464L15.2929 16.7071L15.3871 16.7903C15.7794 17.0953 16.3466 17.0676 16.7071 16.7071C17.0976 16.3166 17.0976 15.6834 16.7071 15.2929L13.464 12.0483C14.4276 10.7866 15 9.21015 15 7.5ZM2 7.5C2 4.46243 4.46243 2 7.5 2C10.5376 2 13 4.46243 13 7.5C13 8.85114 12.5128 10.0885 11.7041 11.0446C11.5536 11.091 11.412 11.1738 11.2929 11.2929C11.1738 11.412 11.091 11.5536 11.0459 11.7045C10.0885 12.5128 8.85114 13 7.5 13C4.46243 13 2 10.5376 2 7.5Z" transform="translate(3 3)" id="color" fill="#7E84A3" fill-rule="evenodd" stroke="none" />
  </g>
</svg>