<?xml version="1.0" encoding="utf-8"?>
<svg width="24px" height="24px" viewBox="0 0 24 24" version="1.1" xmlns:xlink="http://www.w3.org/1999/xlink" xmlns="http://www.w3.org/2000/svg">
  <desc>Created with Lunacy</desc>
  <g id="00-General-/-01-Icons-/-01-Actions-/-01-Add-rounded">
    <path d="M0 0L24 0L24 24L0 24L0 0Z" id="BG" fill="none" stroke="none" />
    <path d="M12 5C12 2.58146 10.2816 0.463729 8 0L6 0C3.71785 0.463343 2 2.58111 2 5L2 9C0.895431 9 0 9.89543 0 11L0 16L5 16L5 17.001Q5 17.0994 5.0192 17.1959Q5.03839 17.2924 5.07604 17.3833Q5.1137 17.4742 5.16836 17.556Q5.22303 17.6378 5.2926 17.7074Q5.36217 17.777 5.44399 17.8316Q5.5258 17.8863 5.6167 17.924Q5.7076 17.9616 5.8041 17.9808Q5.90061 18 5.999 18L8.001 18Q8.09939 18 8.1959 17.9808Q8.2924 17.9616 8.3833 17.924Q8.4742 17.8863 8.55602 17.8316Q8.63783 17.777 8.7074 17.7074Q8.77697 17.6378 8.83164 17.556Q8.8863 17.4742 8.92395 17.3833Q8.96161 17.2924 8.9808 17.1959Q9 17.0994 9 17.001L9 16L14 16L14 11C14 9.89543 13.1046 9 12 9L12 5ZM4.00509 4.82373C4.09634 3.24892 5.40232 2 7 2C8.65685 2 10 3.34315 10 5L10 9.001C10 10.105 10.895 11 11.999 11L12 11L12 14L2 14L2 11L2.001 11Q2.0992 11 2.19694 10.9904Q2.29467 10.9807 2.39099 10.9616Q2.4873 10.9424 2.58128 10.9139Q2.67525 10.8854 2.76598 10.8478Q2.85671 10.8103 2.94332 10.764Q3.02993 10.7177 3.11158 10.6631Q3.19324 10.6085 3.26915 10.5462Q3.34507 10.4839 3.41451 10.4145Q3.48395 10.3451 3.54625 10.2692Q3.60855 10.1932 3.66311 10.1116Q3.71767 10.0299 3.76396 9.94332Q3.81025 9.85671 3.84783 9.76598Q3.88542 9.67525 3.91392 9.58128Q3.94243 9.4873 3.96159 9.39098Q3.98075 9.29467 3.99037 9.19694Q4 9.0992 4 9.001L4 5L4.00509 4.82373Z" transform="translate(5 3)" id="color" fill="#7E84A3" fill-rule="evenodd" stroke="none" />
  </g>
</svg>