<?xml version="1.0" encoding="utf-8"?>
<svg width="24px" height="24px" viewbox="0 0 24 24" version="1.1" xmlns:xlink="http://www.w3.org/1999/xlink" xmlns="http://www.w3.org/2000/svg">
  <g id="icnsidebardashboardactive">
    <g id="icnsidebardashboardactive">
      <path d="M0 0L24 0L24 24L0 24L0 0Z" id="container" fill="none" fill-rule="evenodd" stroke="none" />
      <path d="M0 2.999Q0 2.85167 0.014441 2.70505Q0.028882 2.55842 0.0576249 2.41392Q0.0863679 2.26942 0.129136 2.12844Q0.171904 1.98745 0.228285 1.85133Q0.284667 1.71522 0.354118 1.58528Q0.42357 1.45535 0.505423 1.33284Q0.587276 1.21034 0.680742 1.09645Q0.774208 0.982566 0.878387 0.878387Q0.982566 0.774208 1.09645 0.680742Q1.21034 0.587276 1.33284 0.505423Q1.45535 0.42357 1.58528 0.354118Q1.71522 0.284667 1.85133 0.228285Q1.98745 0.171904 2.12844 0.129136Q2.26942 0.0863679 2.41392 0.0576249Q2.55842 0.028882 2.70505 0.014441Q2.85167 0 2.999 0L5.001 0Q5.14833 0 5.29495 0.014441Q5.44158 0.028882 5.58608 0.0576249Q5.73058 0.0863679 5.87156 0.129136Q6.01255 0.171904 6.14867 0.228285Q6.28478 0.284667 6.41472 0.354118Q6.54465 0.42357 6.66715 0.505423Q6.78966 0.587276 6.90354 0.680742Q7.01743 0.774208 7.12161 0.878387Q7.22579 0.982566 7.31926 1.09645Q7.41272 1.21034 7.49458 1.33284Q7.57643 1.45535 7.64588 1.58528Q7.71533 1.71522 7.77171 1.85133Q7.8281 1.98745 7.87086 2.12844Q7.91363 2.26942 7.94237 2.41392Q7.97112 2.55842 7.98556 2.70505Q8 2.85167 8 2.999L8 5.001Q8 5.14833 7.98556 5.29495Q7.97112 5.44158 7.94237 5.58608Q7.91363 5.73058 7.87086 5.87156Q7.8281 6.01255 7.77171 6.14867Q7.71533 6.28478 7.64588 6.41472Q7.57643 6.54465 7.49458 6.66715Q7.41272 6.78966 7.31926 6.90354Q7.22579 7.01743 7.12161 7.12161Q7.01743 7.22579 6.90354 7.31926Q6.78966 7.41272 6.66715 7.49458Q6.54465 7.57643 6.41472 7.64588Q6.28478 7.71533 6.14867 7.77171Q6.01255 7.8281 5.87156 7.87086Q5.73058 7.91363 5.58608 7.94237Q5.44158 7.97112 5.29495 7.98556Q5.14833 8 5.001 8L2.999 8Q2.85167 8 2.70505 7.98556Q2.55842 7.97112 2.41392 7.94237Q2.26942 7.91363 2.12844 7.87086Q1.98745 7.8281 1.85133 7.77171Q1.71522 7.71533 1.58528 7.64588Q1.45535 7.57643 1.33284 7.49458Q1.21034 7.41272 1.09645 7.31926Q0.982566 7.22579 0.878387 7.12161Q0.774208 7.01743 0.680742 6.90354Q0.587276 6.78966 0.505423 6.66715Q0.42357 6.54465 0.354118 6.41472Q0.284667 6.28478 0.228285 6.14867Q0.171904 6.01255 0.129136 5.87156Q0.0863679 5.73058 0.0576249 5.58608Q0.028882 5.44158 0.014441 5.29495Q0 5.14833 0 5.001L0 2.999ZM10 2.999Q10 2.85167 10.0144 2.70505Q10.0289 2.55842 10.0576 2.41392Q10.0864 2.26942 10.1291 2.12844Q10.1719 1.98745 10.2283 1.85133Q10.2847 1.71522 10.3541 1.58528Q10.4236 1.45535 10.5054 1.33284Q10.5873 1.21034 10.6807 1.09645Q10.7742 0.982566 10.8784 0.878387Q10.9826 0.774208 11.0965 0.680742Q11.2103 0.587276 11.3328 0.505423Q11.4553 0.42357 11.5853 0.354118Q11.7152 0.284667 11.8513 0.228285Q11.9874 0.171904 12.1284 0.129136Q12.2694 0.0863679 12.4139 0.0576249Q12.5584 0.028882 12.705 0.014441Q12.8517 0 12.999 0L15.001 0Q15.1483 0 15.295 0.014441Q15.4416 0.028882 15.5861 0.0576249Q15.7306 0.0863679 15.8716 0.129136Q16.0125 0.171904 16.1487 0.228285Q16.2848 0.284667 16.4147 0.354118Q16.5447 0.42357 16.6672 0.505423Q16.7897 0.587276 16.9035 0.680742Q17.0174 0.774208 17.1216 0.878387Q17.2258 0.982566 17.3193 1.09645Q17.4127 1.21034 17.4946 1.33284Q17.5764 1.45535 17.6459 1.58528Q17.7153 1.71522 17.7717 1.85133Q17.8281 1.98745 17.8709 2.12844Q17.9136 2.26942 17.9424 2.41392Q17.9711 2.55842 17.9856 2.70505Q18 2.85167 18 2.999L18 5.001Q18 5.14833 17.9856 5.29495Q17.9711 5.44158 17.9424 5.58608Q17.9136 5.73058 17.8709 5.87156Q17.8281 6.01255 17.7717 6.14867Q17.7153 6.28478 17.6459 6.41472Q17.5764 6.54465 17.4946 6.66715Q17.4127 6.78966 17.3193 6.90354Q17.2258 7.01743 17.1216 7.12161Q17.0174 7.22579 16.9035 7.31926Q16.7897 7.41272 16.6672 7.49458Q16.5447 7.57643 16.4147 7.64588Q16.2848 7.71533 16.1487 7.77171Q16.0125 7.8281 15.8716 7.87086Q15.7306 7.91363 15.5861 7.94237Q15.4416 7.97112 15.295 7.98556Q15.1483 8 15.001 8L12.999 8Q12.8517 8 12.705 7.98556Q12.5584 7.97112 12.4139 7.94237Q12.2694 7.91363 12.1284 7.87086Q11.9874 7.8281 11.8513 7.77171Q11.7152 7.71533 11.5853 7.64588Q11.4553 7.57643 11.3328 7.49458Q11.2103 7.41272 11.0965 7.31926Q10.9826 7.22579 10.8784 7.12161Q10.7742 7.01743 10.6807 6.90354Q10.5873 6.78966 10.5054 6.66715Q10.4236 6.54465 10.3541 6.41472Q10.2847 6.28478 10.2283 6.14867Q10.1719 6.01255 10.1291 5.87156Q10.0864 5.73058 10.0576 5.58608Q10.0289 5.44158 10.0144 5.29495Q10 5.14833 10 5.001L10 2.999ZM0 12.999Q0 12.8517 0.014441 12.705Q0.028882 12.5584 0.0576249 12.4139Q0.0863679 12.2694 0.129136 12.1284Q0.171904 11.9874 0.228285 11.8513Q0.284667 11.7152 0.354118 11.5853Q0.42357 11.4553 0.505423 11.3328Q0.587276 11.2103 0.680742 11.0965Q0.774208 10.9826 0.878387 10.8784Q0.982566 10.7742 1.09645 10.6807Q1.21034 10.5873 1.33284 10.5054Q1.45535 10.4236 1.58528 10.3541Q1.71522 10.2847 1.85133 10.2283Q1.98745 10.1719 2.12844 10.1291Q2.26942 10.0864 2.41392 10.0576Q2.55842 10.0289 2.70505 10.0144Q2.85167 10 2.999 10L5.001 10Q5.14833 10 5.29495 10.0144Q5.44158 10.0289 5.58608 10.0576Q5.73058 10.0864 5.87156 10.1291Q6.01255 10.1719 6.14867 10.2283Q6.28478 10.2847 6.41472 10.3541Q6.54465 10.4236 6.66715 10.5054Q6.78966 10.5873 6.90354 10.6807Q7.01743 10.7742 7.12161 10.8784Q7.22579 10.9826 7.31926 11.0965Q7.41272 11.2103 7.49458 11.3328Q7.57643 11.4553 7.64588 11.5853Q7.71533 11.7152 7.77171 11.8513Q7.8281 11.9874 7.87086 12.1284Q7.91363 12.2694 7.94237 12.4139Q7.97112 12.5584 7.98556 12.705Q8 12.8517 8 12.999L8 15.001Q8 15.1483 7.98556 15.295Q7.97112 15.4416 7.94237 15.5861Q7.91363 15.7306 7.87086 15.8716Q7.8281 16.0125 7.77171 16.1487Q7.71533 16.2848 7.64588 16.4147Q7.57643 16.5447 7.49458 16.6672Q7.41272 16.7897 7.31926 16.9035Q7.22579 17.0174 7.12161 17.1216Q7.01743 17.2258 6.90354 17.3193Q6.78966 17.4127 6.66715 17.4946Q6.54465 17.5764 6.41472 17.6459Q6.28478 17.7153 6.14867 17.7717Q6.01255 17.8281 5.87156 17.8709Q5.73058 17.9136 5.58608 17.9424Q5.44158 17.9711 5.29495 17.9856Q5.14833 18 5.001 18L2.999 18Q2.85167 18 2.70505 17.9856Q2.55842 17.9711 2.41392 17.9424Q2.26942 17.9136 2.12844 17.8709Q1.98745 17.8281 1.85133 17.7717Q1.71522 17.7153 1.58528 17.6459Q1.45535 17.5764 1.33284 17.4946Q1.21034 17.4127 1.09645 17.3193Q0.982566 17.2258 0.878387 17.1216Q0.774208 17.0174 0.680742 16.9035Q0.587276 16.7897 0.505423 16.6672Q0.42357 16.5447 0.354118 16.4147Q0.284667 16.2848 0.228285 16.1487Q0.171904 16.0125 0.129136 15.8716Q0.0863679 15.7306 0.0576249 15.5861Q0.028882 15.4416 0.014441 15.295Q0 15.1483 0 15.001L0 12.999ZM10 12.999Q10 12.8517 10.0144 12.705Q10.0289 12.5584 10.0576 12.4139Q10.0864 12.2694 10.1291 12.1284Q10.1719 11.9874 10.2283 11.8513Q10.2847 11.7152 10.3541 11.5853Q10.4236 11.4553 10.5054 11.3328Q10.5873 11.2103 10.6807 11.0965Q10.7742 10.9826 10.8784 10.8784Q10.9826 10.7742 11.0965 10.6807Q11.2103 10.5873 11.3328 10.5054Q11.4553 10.4236 11.5853 10.3541Q11.7152 10.2847 11.8513 10.2283Q11.9874 10.1719 12.1284 10.1291Q12.2694 10.0864 12.4139 10.0576Q12.5584 10.0289 12.705 10.0144Q12.8517 10 12.999 10L15.001 10Q15.1483 10 15.295 10.0144Q15.4416 10.0289 15.5861 10.0576Q15.7306 10.0864 15.8716 10.1291Q16.0125 10.1719 16.1487 10.2283Q16.2848 10.2847 16.4147 10.3541Q16.5447 10.4236 16.6672 10.5054Q16.7897 10.5873 16.9035 10.6807Q17.0174 10.7742 17.1216 10.8784Q17.2258 10.9826 17.3193 11.0965Q17.4127 11.2103 17.4946 11.3328Q17.5764 11.4553 17.6459 11.5853Q17.7153 11.7152 17.7717 11.8513Q17.8281 11.9874 17.8709 12.1284Q17.9136 12.2694 17.9424 12.4139Q17.9711 12.5584 17.9856 12.705Q18 12.8517 18 12.999L18 15.001Q18 15.1483 17.9856 15.295Q17.9711 15.4416 17.9424 15.5861Q17.9136 15.7306 17.8709 15.8716Q17.8281 16.0125 17.7717 16.1487Q17.7153 16.2848 17.6459 16.4147Q17.5764 16.5447 17.4946 16.6672Q17.4127 16.7897 17.3193 16.9035Q17.2258 17.0174 17.1216 17.1216Q17.0174 17.2258 16.9035 17.3193Q16.7897 17.4127 16.6672 17.4946Q16.5447 17.5764 16.4147 17.6459Q16.2848 17.7153 16.1487 17.7717Q16.0125 17.8281 15.8716 17.8709Q15.7306 17.9136 15.5861 17.9424Q15.4416 17.9711 15.295 17.9856Q15.1483 18 15.001 18L12.999 18Q12.8517 18 12.705 17.9856Q12.5584 17.9711 12.4139 17.9424Q12.2694 17.9136 12.1284 17.8709Q11.9874 17.8281 11.8513 17.7717Q11.7152 17.7153 11.5853 17.6459Q11.4553 17.5764 11.3328 17.4946Q11.2103 17.4127 11.0965 17.3193Q10.9826 17.2258 10.8784 17.1216Q10.7742 17.0174 10.6807 16.9035Q10.5873 16.7897 10.5054 16.6672Q10.4236 16.5447 10.3541 16.4147Q10.2847 16.2848 10.2283 16.1487Q10.1719 16.0125 10.1291 15.8716Q10.0864 15.7306 10.0576 15.5861Q10.0289 15.4416 10.0144 15.295Q10 15.1483 10 15.001L10 12.999Z" transform="translate(3 3)" id="dashboard" fill="#3F8CFF" fill-rule="evenodd" stroke="none" />
    </g>
  </g>
</svg>