<?xml version="1.0" encoding="utf-8"?>
<svg width="24px" height="24px" viewbox="0 0 24 24" version="1.1" xmlns:xlink="http://www.w3.org/1999/xlink" xmlns="http://www.w3.org/2000/svg">
  <g id="icnsidebarcalendarinactive">
    <g id="icnsidebarcalendaractive">
      <path d="M0 0L24 0L24 24L0 24L0 0Z" id="container" fill="none" fill-rule="evenodd" stroke="none" />
      <path d="M4 0.999Q4 0.900607 4.0192 0.804105Q4.03839 0.707602 4.07604 0.616699Q4.1137 0.525796 4.16836 0.443985Q4.22303 0.362175 4.2926 0.2926Q4.36217 0.223026 4.44398 0.168362Q4.5258 0.113698 4.6167 0.0760443Q4.7076 0.038391 4.8041 0.0191955Q4.90061 0 4.999 0L5.001 0Q5.09939 0 5.19589 0.0191955Q5.2924 0.038391 5.3833 0.0760443Q5.4742 0.113698 5.55601 0.168362Q5.63782 0.223026 5.7074 0.2926Q5.77697 0.362175 5.83164 0.443985Q5.8863 0.525796 5.92395 0.616699Q5.96161 0.707602 5.9808 0.804105Q6 0.900607 6 0.999L6 2L4 2L4 0.999ZM4 4C2.94564 4 2.08183 4.81588 2.00549 5.85074L2 6L2 7L16 7L16 6C16 4.94564 15.1841 4.08183 14.1493 4.00549L14 4L14 2C16.2091 2 18 3.79086 18 6L18 16C18 18.2091 16.2091 20 14 20L4 20C1.79086 20 0 18.2091 0 16L0 6C0 3.79086 1.79086 2 4 2L4 4ZM12 2L14 2L14 0.999Q14 0.900607 13.9808 0.804105Q13.9616 0.707602 13.924 0.616699Q13.8863 0.525796 13.8316 0.443985Q13.777 0.362175 13.7074 0.2926Q13.6378 0.223026 13.556 0.168362Q13.4742 0.113698 13.3833 0.0760443Q13.2924 0.038391 13.1959 0.0191955Q13.0994 0 13.001 0L12.999 0Q12.9006 0 12.8041 0.0191955Q12.7076 0.038391 12.6167 0.0760443Q12.5258 0.113698 12.444 0.168362Q12.3622 0.223026 12.2926 0.2926Q12.223 0.362175 12.1684 0.443985Q12.1137 0.525796 12.076 0.616699Q12.0384 0.707602 12.0192 0.804105Q12 0.900607 12 0.999L12 2ZM12 2L6 2L6 4L4 4L4 4.001Q4 4.09939 4.0192 4.19589Q4.03839 4.2924 4.07604 4.3833Q4.1137 4.4742 4.16836 4.55601Q4.22303 4.63782 4.2926 4.7074Q4.36217 4.77697 4.44398 4.83164Q4.5258 4.8863 4.6167 4.92395Q4.7076 4.96161 4.8041 4.9808Q4.90061 5 4.999 5L5.001 5Q5.09939 5 5.19589 4.9808Q5.2924 4.96161 5.3833 4.92395Q5.4742 4.8863 5.55601 4.83164Q5.63782 4.77697 5.7074 4.7074Q5.77697 4.63782 5.83164 4.55601Q5.8863 4.4742 5.92395 4.3833Q5.96161 4.2924 5.9808 4.19589Q6 4.09939 6 4.001L6 4L12 4L12 4.001Q12 4.09939 12.0192 4.19589Q12.0384 4.2924 12.076 4.3833Q12.1137 4.4742 12.1684 4.55601Q12.223 4.63782 12.2926 4.7074Q12.3622 4.77697 12.444 4.83164Q12.5258 4.8863 12.6167 4.92395Q12.7076 4.96161 12.8041 4.9808Q12.9006 5 12.999 5L13.001 5Q13.0994 5 13.1959 4.9808Q13.2924 4.96161 13.3833 4.92395Q13.4742 4.8863 13.556 4.83164Q13.6378 4.77697 13.7074 4.7074Q13.777 4.63782 13.8316 4.55601Q13.8863 4.4742 13.924 4.3833Q13.9616 4.2924 13.9808 4.19589Q14 4.09939 14 4.001L14 4L12 4L12 2Z" transform="translate(3 1)" id="calendar" fill="#3F8CFF" fill-rule="evenodd" stroke="none" />
    </g>
  </g>
</svg>