<?xml version="1.0" encoding="utf-8"?>
<svg width="24px" height="24px" viewbox="0 0 24 24" version="1.1" xmlns:xlink="http://www.w3.org/1999/xlink" xmlns="http://www.w3.org/2000/svg">
  <g id="icngeneralcalendar">
    <g id="icnsettingspaymentsinactive">
      <path d="M0 0L24 0L24 24L0 24L0 0Z" id="container" fill="none" fill-rule="evenodd" stroke="none" />
      <path d="M18 0L4 0C1.79086 0 0 1.79086 0 4L0 12C0 14.2091 1.79086 16 4 16L18 16C20.2091 16 22 14.2091 22 12L22 4C22 1.79086 20.2091 0 18 0ZM20 6L21 6L21.1166 5.99327C21.614 5.93551 22 5.51284 22 5C22 4.44772 21.5523 4 21 4L20 4C20 2.89543 19.1046 2 18 2L4 2C2.89543 2 2 2.89543 2 4L1 4L0.883379 4.00673C0.38604 4.06449 0 4.48716 0 5C0 5.55228 0.447715 6 1 6L2 6L2 12C2 13.1046 2.89543 14 4 14L18 14C19.1046 14 20 13.1046 20 12L20 6ZM2 6L20 6L20 4L2 4L2 6ZM10 10L11 10C11.5523 10 12 10.4477 12 11C12 11.5128 11.614 11.9355 11.1166 11.9933L11 12L10 12C9.44772 12 9 11.5523 9 11C9 10.4872 9.38604 10.0645 9.88338 10.0067L10 10ZM14 10L17 10C17.5523 10 18 10.4477 18 11C18 11.5128 17.614 11.9355 17.1166 11.9933L17 12L14 12C13.4477 12 13 11.5523 13 11C13 10.4872 13.386 10.0645 13.8834 10.0067L14 10Z" transform="translate(1 4)" id="card" fill="#7D8592" fill-rule="evenodd" stroke="none" />
    </g>
  </g>
</svg>