<?xml version="1.0" encoding="utf-8"?>
<svg width="44px" height="44px" viewbox="0 0 44 44" version="1.1" xmlns:xlink="http://www.w3.org/1999/xlink" xmlns="http://www.w3.org/2000/svg">
  <g id="Icon">
    <path d="M13.999 0L30.001 0Q30.3447 0 30.6879 0.0168624Q31.0311 0.0337248 31.3731 0.067409Q31.7151 0.101093 32.0551 0.151518Q32.395 0.201943 32.7321 0.268987Q33.0691 0.336031 33.4025 0.419532Q33.7358 0.503034 34.0647 0.602792Q34.3936 0.70255 34.7171 0.818324Q35.0407 0.934099 35.3582 1.06561Q35.6757 1.19712 35.9863 1.34405Q36.297 1.49099 36.6001 1.65298Q36.9032 1.81498 37.1979 1.99166Q37.4927 2.16833 37.7784 2.35926Q38.0642 2.55018 38.3402 2.7549Q38.6162 2.95961 38.8819 3.17763Q39.1475 3.39564 39.4021 3.62642Q39.6568 3.85721 39.8998 4.10021Q40.1428 4.34321 40.3736 4.59785Q40.6044 4.85248 40.8224 5.11813Q41.0404 5.38378 41.2451 5.6598Q41.4498 5.93583 41.6407 6.22157Q41.8317 6.50731 42.0083 6.80207Q42.185 7.09684 42.347 7.39992Q42.509 7.70299 42.6559 8.01366Q42.8029 8.32432 42.9344 8.64181Q43.0659 8.95931 43.1817 9.28288Q43.2974 9.60644 43.3972 9.9353Q43.497 10.2642 43.5805 10.5975Q43.664 10.9309 43.731 11.2679Q43.7981 11.605 43.8485 11.9449Q43.8989 12.2849 43.9326 12.6269Q43.9663 12.9689 43.9831 13.3121Q44 13.6553 44 13.999L44 30.001Q44 30.3447 43.9831 30.6879Q43.9663 31.0311 43.9326 31.3731Q43.8989 31.7151 43.8485 32.0551Q43.7981 32.395 43.731 32.7321Q43.664 33.0691 43.5805 33.4025Q43.497 33.7358 43.3972 34.0647Q43.2974 34.3936 43.1817 34.7171Q43.0659 35.0407 42.9344 35.3582Q42.8029 35.6757 42.6559 35.9863Q42.509 36.297 42.347 36.6001Q42.185 36.9032 42.0083 37.1979Q41.8317 37.4927 41.6407 37.7784Q41.4498 38.0642 41.2451 38.3402Q41.0404 38.6162 40.8224 38.8819Q40.6044 39.1475 40.3736 39.4021Q40.1428 39.6568 39.8998 39.8998Q39.6568 40.1428 39.4021 40.3736Q39.1475 40.6044 38.8819 40.8224Q38.6162 41.0404 38.3402 41.2451Q38.0642 41.4498 37.7784 41.6407Q37.4927 41.8317 37.1979 42.0083Q36.9032 42.185 36.6001 42.347Q36.297 42.509 35.9863 42.6559Q35.6757 42.8029 35.3582 42.9344Q35.0407 43.0659 34.7171 43.1817Q34.3936 43.2974 34.0647 43.3972Q33.7358 43.497 33.4025 43.5805Q33.0691 43.664 32.7321 43.731Q32.395 43.7981 32.0551 43.8485Q31.7151 43.8989 31.3731 43.9326Q31.0311 43.9663 30.6879 43.9831Q30.3447 44 30.001 44L13.999 44Q13.6553 44 13.3121 43.9831Q12.9689 43.9663 12.6269 43.9326Q12.2849 43.8989 11.9449 43.8485Q11.605 43.7981 11.2679 43.731Q10.9309 43.664 10.5975 43.5805Q10.2642 43.497 9.9353 43.3972Q9.60644 43.2974 9.28288 43.1817Q8.95931 43.0659 8.64181 42.9344Q8.32432 42.8029 8.01366 42.6559Q7.70299 42.509 7.39992 42.347Q7.09684 42.185 6.80207 42.0083Q6.50731 41.8317 6.22157 41.6407Q5.93583 41.4498 5.6598 41.2451Q5.38378 41.0404 5.11813 40.8224Q4.85248 40.6044 4.59785 40.3736Q4.34321 40.1428 4.10021 39.8998Q3.85721 39.6568 3.62642 39.4021Q3.39564 39.1475 3.17763 38.8819Q2.95961 38.6162 2.7549 38.3402Q2.55018 38.0642 2.35926 37.7784Q2.16833 37.4927 1.99166 37.1979Q1.81498 36.9032 1.65298 36.6001Q1.49099 36.297 1.34405 35.9863Q1.19712 35.6757 1.06561 35.3582Q0.934099 35.0407 0.818324 34.7171Q0.70255 34.3936 0.602792 34.0647Q0.503034 33.7358 0.419532 33.4025Q0.336031 33.0691 0.268987 32.7321Q0.201943 32.395 0.151518 32.0551Q0.101093 31.7151 0.067409 31.3731Q0.0337248 31.0311 0.0168624 30.6879Q0 30.3447 0 30.001L0 13.999Q0 13.6553 0.0168624 13.3121Q0.0337248 12.9689 0.067409 12.6269Q0.101093 12.2849 0.151518 11.9449Q0.201943 11.605 0.268987 11.2679Q0.336031 10.9309 0.419532 10.5975Q0.503034 10.2642 0.602792 9.9353Q0.70255 9.60644 0.818324 9.28288Q0.934099 8.95931 1.06561 8.64181Q1.19712 8.32432 1.34405 8.01366Q1.49099 7.70299 1.65298 7.39992Q1.81498 7.09684 1.99166 6.80207Q2.16833 6.50731 2.35926 6.22157Q2.55018 5.93583 2.7549 5.6598Q2.95961 5.38378 3.17763 5.11813Q3.39564 4.85248 3.62642 4.59785Q3.85721 4.34321 4.10021 4.10021Q4.34321 3.85721 4.59785 3.62642Q4.85248 3.39564 5.11813 3.17763Q5.38378 2.95961 5.6598 2.7549Q5.93583 2.55018 6.22157 2.35926Q6.50731 2.16833 6.80207 1.99166Q7.09684 1.81498 7.39992 1.65298Q7.70299 1.49099 8.01366 1.34405Q8.32432 1.19712 8.64181 1.06561Q8.95931 0.934099 9.28288 0.818324Q9.60644 0.70255 9.9353 0.602792Q10.2642 0.503034 10.5975 0.419532Q10.9309 0.336031 11.2679 0.268987Q11.605 0.201943 11.9449 0.151518Q12.2849 0.101093 12.6269 0.067409Q12.9689 0.0337248 13.3121 0.0168624Q13.6553 0 13.999 0Z" id="elmcardgray" fill="#F4F9FD" fill-rule="evenodd" stroke="none" />
    <g id="icngeneralmore" transform="translate(10 10)">
      <g id="icngeneralmore">
        <path d="M0 0L24 0L24 24L0 24L0 0Z" id="container" fill="none" fill-rule="evenodd" stroke="none" />
        <path d="M4 2C4 3.10457 3.10457 4 2 4C0.895431 4 0 3.10457 0 2C0 0.895431 0.895431 0 2 0C3.10457 0 4 0.895431 4 2ZM4 9C4 10.1046 3.10457 11 2 11C0.895431 11 0 10.1046 0 9C0 7.89543 0.895431 7 2 7C3.10457 7 4 7.89543 4 9ZM4 16C4 17.1046 3.10457 18 2 18C0.895431 18 0 17.1046 0 16C0 14.8954 0.895431 14 2 14C3.10457 14 4 14.8954 4 16Z" transform="translate(10 3)" id="more" fill="#0A1629" fill-rule="evenodd" stroke="none" />
      </g>
    </g>
  </g>
</svg>