<?xml version="1.0" encoding="utf-8"?>
<svg width="24px" height="24px" viewbox="0 0 24 24" version="1.1" xmlns:xlink="http://www.w3.org/1999/xlink" xmlns="http://www.w3.org/2000/svg">
  <g id="icnsidebarlogout">
    <g id="icnsidebarlogout">
      <path d="M0 0L24 0L24 24L0 24L0 0Z" id="container" fill="none" fill-rule="evenodd" stroke="none" />
      <path d="M19 0C19.5128 0 19.9355 0.38604 19.9933 0.883379L20 1L20 19C20 19.5128 19.614 19.9355 19.1166 19.9933L19 20L13 20C12.4477 20 12 19.5523 12 19C12 18.4872 12.386 18.0645 12.8834 18.0067L13 18L18 18L18 2L13 2C12.4872 2 12.0645 1.61396 12.0067 1.11662L12 1C12 0.487164 12.386 0.0644928 12.8834 0.00672773L13 0L19 0ZM8.6129 4.2097L8.70711 4.29289L13.7071 9.29289C14.0676 9.65338 14.0953 10.2206 13.7903 10.6129L13.7071 10.7071L8.70711 15.7071C8.31658 16.0976 7.68342 16.0976 7.29289 15.7071C6.93241 15.3466 6.90468 14.7794 7.2097 14.3871L7.29289 14.2929L10.585 11L1 11C0.447715 11 0 10.5523 0 10C0 9.48716 0.38604 9.06449 0.883379 9.00673L1 9L10.585 9L7.29289 5.70711C6.93241 5.34662 6.90468 4.77939 7.2097 4.3871L7.29289 4.29289C7.62334 3.96245 8.12751 3.91161 8.5114 4.14038L8.6129 4.2097Z" transform="translate(2 2)" id="logout" fill="#7D8592" fill-rule="evenodd" stroke="none" />
    </g>
  </g>
</svg>