<?xml version="1.0" encoding="utf-8"?>
<svg width="24px" height="24px" viewBox="0 0 24 24" version="1.1" xmlns:xlink="http://www.w3.org/1999/xlink" xmlns="http://www.w3.org/2000/svg">
  <desc>Created with Lunacy</desc>
  <g id="Icon">
    <path d="M0 0L24 0L24 24L0 24L0 0Z" id="BG" fill="none" stroke="none" />
    <path d="M7 1.06581e-14C7.55228 1.06581e-14 8 0.447715 8 1L8 5.999L13 6C13.5523 6 14 6.44772 14 7C14 7.55228 13.5523 8 13 8L8 7.999L8 13C8 13.5523 7.55228 14 7 14C6.44772 14 6 13.5523 6 13L6 7.999L1 8C0.447715 8 -3.41061e-13 7.55228 -3.41061e-13 7C-3.41061e-13 6.44772 0.447715 6 1 6L6 5.999L6 1C6 0.447715 6.44772 1.06581e-14 7 1.06581e-14Z" transform="translate(5 5)" id="color" fill="#FFFFFF" stroke="none" />
  </g>
</svg>